<svg xmlns="http://www.w3.org/2000/svg" viewBox="0 0 64 64" xml:space="preserve"><path fill="#0A5078" d="M56 60H8a4 4 0 0 1-4-4v-2a4 4 0 0 1 4-4h48a4 4 0 0 1 4 4v2a4 4 0 0 1-4 4z"/><path fill="#D2AA82" d="M46 52a2 2 0 0 1-2-2v-3h4v3a2 2 0 0 1-2 2z"/><path fill="#DC9600" d="M48 38h-4a2 2 0 0 0-2 2v5a3 3 0 0 0 3 3h2a3 3 0 0 0 3-3v-5a2 2 0 0 0-2-2z"/><path fill="#745472" d="M54 60H38v-7a3 3 0 0 1 3-3h10a3 3 0 0 1 3 3v7z"/><path fill="#D2AA82" d="M18 52a2 2 0 0 1-2-2v-3h4v3a2 2 0 0 1-2 2z"/><path fill="#0A5078" d="M20 38h-4a2 2 0 0 0-2 2v5a3 3 0 0 0 3 3h2a3 3 0 0 0 3-3v-5a2 2 0 0 0-2-2z"/><path fill="#777" d="M26 60H10v-7a3 3 0 0 1 3-3h10a3 3 0 0 1 3 3v7z"/><path fill="#444" d="M33 28h-2a5 5 0 0 0-5 5v10a1 1 0 0 0 1 1h10a1 1 0 0 0 1-1V33a5 5 0 0 0-5-5z"/><path fill="#222" d="M40 50H24v-4a4 4 0 0 1 4-4h8a4 4 0 0 1 4 4v4z"/><path fill="#222" d="M24 49h16v1H24z"/><path fill="#00A0C8" d="M28 42a4 4 0 0 0 8 0h-8z"/><path fill="#D2AA82" d="M32 44a2 2 0 0 1-2-2v-3h4v3a2 2 0 0 1-2 2z"/><path fill="#F0C8A0" d="M33 40h-2a3 3 0 0 1-3-3v-3a2 2 0 0 1 2-2h1a2 2 0 0 0 2 2h3v3a3 3 0 0 1-3 3z"/><g><path fill="#555" d="M48 8h-4a2 2 0 0 0-2-2H22a2 2 0 0 0-2 2h-4a4 4 0 0 0-4 4v8a4 4 0 0 0 4 4h4a2 2 0 0 0 2 2h20a2 2 0 0 0 2-2h4a4 4 0 0 0 4-4v-8a4 4 0 0 0-4-4z"/></g><g><path fill="#0A5078" d="M22 24a2 2 0 0 0-2-2h-4a2 2 0 0 1-2-2v-8a2 2 0 0 1 2-2h4a2 2 0 0 0 2-2h20a2 2 0 0 0 2 2h4a2 2 0 0 1 2 2v8a2 2 0 0 1-2 2h-4a2 2 0 0 0-2 2H22z"/></g><g><path fill="#00325A" d="M27 20a1 1 0 0 1-1-1v-1.177c0-.88.62-1.656 1.506-1.888 1.017-.265 1.645-1.257 1.461-2.307a2.024 2.024 0 0 0-1.596-1.596A2.001 2.001 0 0 0 25 14a1 1 0 0 1-2 0c0-1.185.521-2.302 1.429-3.064a4.023 4.023 0 0 1 3.288-.873c1.613.283 2.937 1.607 3.22 3.22.366 2.085-.892 4.058-2.926 4.588L28 19a1 1 0 0 1-1 1z"/><circle fill="#00325A" cx="27" cy="22" r="1"/><g><path fill="#00325A" d="M37 20a1 1 0 0 1-1-1v-1.177c0-.88.62-1.656 1.506-1.888 1.017-.265 1.645-1.257 1.461-2.307a2.024 2.024 0 0 0-1.596-1.596A2.002 2.002 0 0 0 35 14a1 1 0 0 1-2 0c0-1.185.521-2.302 1.429-3.064a4.025 4.025 0 0 1 3.288-.873c1.613.283 2.937 1.607 3.22 3.22.366 2.085-.892 4.058-2.926 4.588L38 19a1 1 0 0 1-1 1z"/><circle fill="#00325A" cx="37" cy="22" r="1"/></g></g><g><path fill="#00325A" d="M48 10h-4a2 2 0 0 1-2-2H22a2 2 0 0 1-2 2h-4a2 2 0 0 0-2 2v1a2 2 0 0 1 2-2h4a2 2 0 0 0 2-2h20a2 2 0 0 0 2 2h4a2 2 0 0 1 2 2v-1a2 2 0 0 0-2-2z"/></g><g><path fill="#C80A50" d="M16 4h2v4h-2z"/></g><g><path fill="#C80A50" d="M46 4h2v4h-2z"/></g><g><path fill="#A00028" d="M16 7h2v1h-2z"/></g><g><path fill="#A00028" d="M46 7h2v1h-2z"/></g><g><path fill="#00A0C8" d="M27 19a1 1 0 0 1-1-1v-1.177c0-.88.62-1.656 1.506-1.888 1.017-.265 1.645-1.257 1.461-2.307a2.024 2.024 0 0 0-1.596-1.596A2 2 0 0 0 25 13a1 1 0 0 1-2 0c0-1.185.521-2.302 1.429-3.064a4.02 4.02 0 0 1 3.288-.873c1.613.283 2.937 1.607 3.22 3.22.366 2.085-.892 4.058-2.926 4.588L28 18a1 1 0 0 1-1 1z"/><circle fill="#00A0C8" cx="27" cy="21" r="1"/><g><path fill="#00A0C8" d="M37 19a1 1 0 0 1-1-1v-1.177c0-.88.62-1.656 1.506-1.888 1.017-.265 1.645-1.257 1.461-2.307a2.024 2.024 0 0 0-1.596-1.596A2 2 0 0 0 35 13a1 1 0 0 1-2 0c0-1.185.521-2.302 1.429-3.064a4.021 4.021 0 0 1 3.288-.873c1.613.283 2.937 1.607 3.22 3.22.366 2.085-.892 4.058-2.926 4.588L38 18a1 1 0 0 1-1 1z"/><circle fill="#00A0C8" cx="37" cy="21" r="1"/></g></g></svg>